<?xml version="1.0" encoding="utf-8"?>
<svg version="1.1" xmlns="http://www.w3.org/2000/svg">
  <g id="sort_by">
    <svg id="sort_by-alpha" height="24" viewBox="0 0 24 24" width="24">
      <path d="M0 0h24v24H0V0zm0 0h24v24H0V0zm.75.75h22.5v22.5H.75z" fill="none"/>
      <path
        d="M14.94 4.66h-4.72l2.36-2.36zm-4.69 14.71h4.66l-2.33 2.33zM6.1 6.27L1.6 17.73h1.84l.92-2.45h5.11l.92 2.45h1.84L7.74 6.27H6.1zm-1.13 7.37l1.94-5.18 1.94 5.18H4.97zm10.76 2.5h6.12v1.59h-8.53v-1.29l5.92-8.56h-5.88v-1.6h8.3v1.26l-5.93 8.6z"/>
    </svg>
    <svg id="sort_by-upward" height="24" viewBox="0 0 24 24" width="24">
      <path d="M0 0h24v24H0V0z" fill="none"/>
      <path d="M4 12l1.41 1.41L11 7.83V20h2V7.83l5.58 5.59L20 12l-8-8-8 8z"/>
    </svg>
    <svg id="sort_by-downward" height="24" viewBox="0 0 24 24" width="24">
      <path d="M0 0h24v24H0V0z" fill="none"/>
      <path d="M20 12l-1.41-1.41L13 16.17V4h-2v12.17l-5.58-5.59L4 12l8 8 8-8z"/>
    </svg>
    <svg id="sort_by-access_time" height="24" viewBox="0 0 24 24" width="24">
      <path
        d="M11.99 2C6.47 2 2 6.48 2 12s4.47 10 9.99 10C17.52 22 22 17.52 22 12S17.52 2 11.99 2zM12 20c-4.42 0-8-3.58-8-8s3.58-8 8-8 8 3.58 8 8-3.58 8-8 8z"/>
      <path d="M0 0h24v24H0z" fill="none"/>
      <path d="M12.5 7H11v6l5.25 3.15.75-1.23-4.5-2.67z"/>
    </svg>
    <svg id="sort_by-most_studied" height="24" viewBox="0 0 24 24" width="24">
      <path d="M0 0h24v24H0z" fill="none"/>
      <path
        d="M18 7l-1.41-1.41-6.34 6.34 1.41 1.41L18 7zm4.24-1.41L11.66 16.17 7.48 12l-1.41 1.41L11.66 19l12-12-1.42-1.41zM.41 13.41L6 19l1.41-1.41L1.83 12 .41 13.41z"/>
    </svg>
  </g>
</svg>
