<?xml version="1.0" encoding="utf-8"?>
<svg version="1.1" xmlns="http://www.w3.org/2000/svg" xmlns:xlink="http://www.w3.org/1999/xlink">
  <g id="general">
    <svg id="general-menu" height="24" viewBox="0 0 24 24" width="24">
        <path d="M0 0h24v24H0z" fill="none"/>
        <path d="M3 18h18v-2H3v2zm0-5h18v-2H3v2zm0-7v2h18V6H3z"/>
    </svg>
    <svg id="general-search" height="24" viewBox="0 0 24 24" width="24">
        <path d="M15.5 14h-.79l-.28-.27C15.41 12.59 16 11.11 16 9.5 16 5.91 13.09 3 9.5 3S3 5.91 3 9.5 5.91 16 9.5 16c1.61 0 3.09-.59 4.23-1.57l.27.28v.79l5 4.99L20.49 19l-4.99-5zm-6 0C7.01 14 5 11.99 5 9.5S7.01 5 9.5 5 14 7.01 14 9.5 11.99 14 9.5 14z"/>
        <path d="M0 0h24v24H0z" fill="none"/>
    </svg>
    <svg id="general-more_vert" height="24" viewBox="0 0 24 24" width="24" xmlns="http://www.w3.org/2000/svg">
        <path d="M0 0h24v24H0z" fill="none"/>
        <path d="M12 8c1.1 0 2-.9 2-2s-.9-2-2-2-2 .9-2 2 .9 2 2 2zm0 2c-1.1 0-2 .9-2 2s.9 2 2 2 2-.9 2-2-.9-2-2-2zm0 6c-1.1 0-2 .9-2 2s.9 2 2 2 2-.9 2-2-.9-2-2-2z"/>
    </svg>
    <svg id="general-add" height="24" viewBox="0 0 24 24" width="24" xmlns="http://www.w3.org/2000/svg">
        <path d="M19 13h-6v6h-2v-6H5v-2h6V5h2v6h6v2z"/>
        <path d="M0 0h24v24H0z" fill="none"/>
    </svg>
    <svg id="general-edit" height="24" viewBox="0 0 24 24" width="24" xmlns="http://www.w3.org/2000/svg">
        <path d="M3 17.25V21h3.75L17.81 9.94l-3.75-3.75L3 17.25zM20.71 7.04c.39-.39.39-1.02 0-1.41l-2.34-2.34c-.39-.39-1.02-.39-1.41 0l-1.83 1.83 3.75 3.75 1.83-1.83z"/>
        <path d="M0 0h24v24H0z" fill="none"/>
    </svg>
    <svg id="general-delete" height="24" viewBox="0 0 24 24" width="24" xmlns="http://www.w3.org/2000/svg">
        <path d="M6 19c0 1.1.9 2 2 2h8c1.1 0 2-.9 2-2V7H6v12zM19 4h-3.5l-1-1h-5l-1 1H5v2h14V4z"/>
        <path d="M0 0h24v24H0z" fill="none"/>
    </svg>
    <svg id="general-arrow_back" height="24" viewBox="0 0 24 24" width="24" xmlns="http://www.w3.org/2000/svg">
        <path d="M0 0h24v24H0z" fill="none"/>
        <path d="M20 11H7.83l5.59-5.59L12 4l-8 8 8 8 1.41-1.41L7.83 13H20v-2z"/>
    </svg>
    <svg id="general-close" height="24" viewBox="0 0 24 24" width="24" xmlns="http://www.w3.org/2000/svg">
        <path d="M19 6.41L17.59 5 12 10.59 6.41 5 5 6.41 10.59 12 5 17.59 6.41 19 12 13.41 17.59 19 19 17.59 13.41 12z"/>
        <path d="M0 0h24v24H0z" fill="none"/>
    </svg>
  </g>

  <g id="texts">
    <svg id="texts-folder-closed" viewBox="0 0 24 24" height="24" width="24">
      <path d="M10 4H4c-1.1 0-1.99.9-1.99 2L2 18c0 1.1.9 2 2 2h16c1.1 0 2-.9 2-2V8c0-1.1-.9-2-2-2h-8l-2-2z"/>
      <path d="M0 0h24v24H0z" fill="none"/>
    </svg>
  </g>

  <g id="sort_by">
    <svg id="sort_by-alpha" height="24" viewBox="0 0 24 24" width="24" xmlns="http://www.w3.org/2000/svg">
        <path d="M0 0h24v24H0V0zm0 0h24v24H0V0zm.75.75h22.5v22.5H.75z" fill="none"/>
        <path d="M14.94 4.66h-4.72l2.36-2.36zm-4.69 14.71h4.66l-2.33 2.33zM6.1 6.27L1.6 17.73h1.84l.92-2.45h5.11l.92 2.45h1.84L7.74 6.27H6.1zm-1.13 7.37l1.94-5.18 1.94 5.18H4.97zm10.76 2.5h6.12v1.59h-8.53v-1.29l5.92-8.56h-5.88v-1.6h8.3v1.26l-5.93 8.6z"/>
    </svg>
    <svg id="sort_by-upward" height="24" viewBox="0 0 24 24" width="24" xmlns="http://www.w3.org/2000/svg">
        <path d="M0 0h24v24H0V0z" fill="none"/>
        <path d="M4 12l1.41 1.41L11 7.83V20h2V7.83l5.58 5.59L20 12l-8-8-8 8z"/>
    </svg>
    <svg id="sort_by-downward" height="24" viewBox="0 0 24 24" width="24" xmlns="http://www.w3.org/2000/svg">
        <path d="M0 0h24v24H0V0z" fill="none"/>
        <path d="M20 12l-1.41-1.41L13 16.17V4h-2v12.17l-5.58-5.59L4 12l8 8 8-8z"/>
    </svg>
    <svg id="sort_by-access_time" height="24" viewBox="0 0 24 24" width="24" xmlns="http://www.w3.org/2000/svg">
        <path d="M11.99 2C6.47 2 2 6.48 2 12s4.47 10 9.99 10C17.52 22 22 17.52 22 12S17.52 2 11.99 2zM12 20c-4.42 0-8-3.58-8-8s3.58-8 8-8 8 3.58 8 8-3.58 8-8 8z"/>
        <path d="M0 0h24v24H0z" fill="none"/>
        <path d="M12.5 7H11v6l5.25 3.15.75-1.23-4.5-2.67z"/>
    </svg>
    <svg id="sort_by-most_studied" height="24" viewBox="0 0 24 24" width="24" xmlns="http://www.w3.org/2000/svg">
        <path d="M0 0h24v24H0z" fill="none"/>
        <path d="M18 7l-1.41-1.41-6.34 6.34 1.41 1.41L18 7zm4.24-1.41L11.66 16.17 7.48 12l-1.41 1.41L11.66 19l12-12-1.42-1.41zM.41 13.41L6 19l1.41-1.41L1.83 12 .41 13.41z"/>
    </svg>
  </g>
</svg>
