<?xml version="1.0" encoding="utf-8"?>
<svg version="1.1" xmlns="http://www.w3.org/2000/svg" xmlns:xlink="http://www.w3.org/1999/xlink">
  <g id="general">
    <svg id="general-menu" fill="#FFFFFF" height="24" viewBox="0 0 24 24" width="24">
        <path d="M0 0h24v24H0z" fill="none"/>
        <path d="M3 18h18v-2H3v2zm0-5h18v-2H3v2zm0-7v2h18V6H3z"/>
    </svg>
    <svg id="general-search" fill="#FFFFFF" height="24" viewBox="0 0 24 24" width="24">
        <path d="M15.5 14h-.79l-.28-.27C15.41 12.59 16 11.11 16 9.5 16 5.91 13.09 3 9.5 3S3 5.91 3 9.5 5.91 16 9.5 16c1.61 0 3.09-.59 4.23-1.57l.27.28v.79l5 4.99L20.49 19l-4.99-5zm-6 0C7.01 14 5 11.99 5 9.5S7.01 5 9.5 5 14 7.01 14 9.5 11.99 14 9.5 14z"/>
        <path d="M0 0h24v24H0z" fill="none"/>
    </svg>
    <svg id="general-more_vert" fill="#FFFFFF" height="24" viewBox="0 0 24 24" width="24" xmlns="http://www.w3.org/2000/svg">
        <path d="M0 0h24v24H0z" fill="none"/>
        <path d="M12 8c1.1 0 2-.9 2-2s-.9-2-2-2-2 .9-2 2 .9 2 2 2zm0 2c-1.1 0-2 .9-2 2s.9 2 2 2 2-.9 2-2-.9-2-2-2zm0 6c-1.1 0-2 .9-2 2s.9 2 2 2 2-.9 2-2-.9-2-2-2z"/>
    </svg>
    <svg id="general-add" fill="#FFFFFF" height="24" viewBox="0 0 24 24" width="24" xmlns="http://www.w3.org/2000/svg">
        <path d="M19 13h-6v6h-2v-6H5v-2h6V5h2v6h6v2z"/>
        <path d="M0 0h24v24H0z" fill="none"/>
    </svg>
    <svg id="general-edit" fill="#000000" height="24" viewBox="0 0 24 24" width="24" xmlns="http://www.w3.org/2000/svg">
        <path d="M3 17.25V21h3.75L17.81 9.94l-3.75-3.75L3 17.25zM20.71 7.04c.39-.39.39-1.02 0-1.41l-2.34-2.34c-.39-.39-1.02-.39-1.41 0l-1.83 1.83 3.75 3.75 1.83-1.83z"/>
        <path d="M0 0h24v24H0z" fill="none"/>
    </svg>
    <svg id="general-delete" fill="#000000" height="24" viewBox="0 0 24 24" width="24" xmlns="http://www.w3.org/2000/svg">
        <path d="M6 19c0 1.1.9 2 2 2h8c1.1 0 2-.9 2-2V7H6v12zM19 4h-3.5l-1-1h-5l-1 1H5v2h14V4z"/>
        <path d="M0 0h24v24H0z" fill="none"/>
    </svg>
    <svg id="general-arrow_back" fill="#FFFFFF" height="24" viewBox="0 0 24 24" width="24" xmlns="http://www.w3.org/2000/svg">
        <path d="M0 0h24v24H0z" fill="none"/>
        <path d="M20 11H7.83l5.59-5.59L12 4l-8 8 8 8 1.41-1.41L7.83 13H20v-2z"/>
    </svg>
  </g>

  <g id="sidenav">
    <svg id="sidenav-start" fill="#000000" height="24" viewBox="0 0 24 24" width="24" xmlns="http://www.w3.org/2000/svg">
        <path d="M0 0h24v24H0z" fill="none"/>
        <path d="M12 2C6.48 2 2 6.48 2 12s4.48 10 10 10 10-4.48 10-10S17.52 2 12 2zm-2 14.5v-9l6 4.5-6 4.5z"/>
    </svg>
    <svg id="sidenav-texts" fill="#000000" viewBox="0 0 24 24" height="24" width="24">
      <path d="M10 4H4c-1.1 0-1.99.9-1.99 2L2 18c0 1.1.9 2 2 2h16c1.1 0 2-.9 2-2V8c0-1.1-.9-2-2-2h-8l-2-2z"/>
      <path d="M0 0h24v24H0z" fill="none"/>
    </svg>
    <svg id="sidenav-words" fill="#000000" viewBox="0 0 24 24" height="24" width="24">
      <path d="M0 0h24v24H0V0z" fill="none"/>
      <path d="M9.93 13.5h4.14L12 7.98zM20 2H4c-1.1 0-2 .9-2 2v16c0 1.1.9 2 2 2h16c1.1 0 2-.9 2-2V4c0-1.1-.9-2-2-2zm-4.05 16.5l-1.14-3H9.17l-1.12 3H5.96l5.11-13h1.86l5.11 13h-2.09z"/>
    </svg>
    <svg id="sidenav-stats" fill="#000000" viewBox="0 0 24 24" height="24" width="24">
        <path d="M19 3H5c-1.1 0-2 .9-2 2v14c0 1.1.9 2 2 2h14c1.1 0 2-.9 2-2V5c0-1.1-.9-2-2-2zM9 17H7v-7h2v7zm4 0h-2V7h2v10zm4 0h-2v-4h2v4z"/>
        <path d="M0 0h24v24H0z" fill="none"/>
    </svg>
    <svg id="sidenav-import" fill="#000000" viewBox="0 0 24 24" height="24" width="24">
        <path d="M20.54 5.23l-1.39-1.68C18.88 3.21 18.47 3 18 3H6c-.47 0-.88.21-1.16.55L3.46 5.23C3.17 5.57 3 6.02 3 6.5V19c0 1.1.9 2 2 2h14c1.1 0 2-.9 2-2V6.5c0-.48-.17-.93-.46-1.27zM12 17.5L6.5 12H10v-2h4v2h3.5L12 17.5zM5.12 5l.81-1h12l.94 1H5.12z"/>
        <path d="M0 0h24v24H0z" fill="none"/>
    </svg>
    <svg id="sidenav-export" fill="#000000" viewBox="0 0 24 24" height="24" width="24">
        <defs> <path d="M0 0h24v24H0V0z" id="a"/> </defs>
        <clipPath id="b"> <use overflow="visible" xlink:href="#a"/> </clipPath>
        <path clip-path="url(#b)" d="M20.55 5.22l-1.39-1.68C18.88 3.21 18.47 3 18 3H6c-.47 0-.88.21-1.15.55L3.46 5.22C3.17 5.57 3 6.01 3 6.5V19c0 1.1.89 2 2 2h14c1.1 0 2-.9 2-2V6.5c0-.49-.17-.93-.45-1.28zM12 9.5l5.5 5.5H14v2h-4v-2H6.5L12 9.5zM5.12 5l.82-1h12l.93 1H5.12z"/>
    </svg>
    <svg id="sidenav-settings" fill="#000000" viewBox="0 0 24 24" height="24" width="24">
        <path d="M0 0h24v24H0z" fill="none"/>
        <path d="M19.43 12.98c.04-.32.07-.64.07-.98s-.03-.66-.07-.98l2.11-1.65c.19-.15.24-.42.12-.64l-2-3.46c-.12-.22-.39-.3-.61-.22l-2.49 1c-.52-.4-1.08-.73-1.69-.98l-.38-2.65C14.46 2.18 14.25 2 14 2h-4c-.25 0-.46.18-.49.42l-.38 2.65c-.61.25-1.17.59-1.69.98l-2.49-1c-.23-.09-.49 0-.61.22l-2 3.46c-.13.22-.07.49.12.64l2.11 1.65c-.04.32-.07.65-.07.98s.03.66.07.98l-2.11 1.65c-.19.15-.24.42-.12.64l2 3.46c.12.22.39.3.61.22l2.49-1c.52.4 1.08.73 1.69.98l.38 2.65c.03.24.24.42.49.42h4c.25 0 .46-.18.49-.42l.38-2.65c.61-.25 1.17-.59 1.69-.98l2.49 1c.23.09.49 0 .61-.22l2-3.46c.12-.22.07-.49-.12-.64l-2.11-1.65zM12 15.5c-1.93 0-3.5-1.57-3.5-3.5s1.57-3.5 3.5-3.5 3.5 1.57 3.5 3.5-1.57 3.5-3.5 3.5z"/>
    </svg>
    <svg id="sidenav-news" fill="#000000" height="24" viewBox="0 0 24 24" width="24">
        <defs> <path d="M0 0h24v24H0V0z" id="a"/> </defs>
        <clipPath id="b"> <use overflow="visible" xlink:href="#a"/> </clipPath>
        <path clip-path="url(#b)" d="M20 4H4c-1.11 0-1.99.89-1.99 2L2 18c0 1.11.89 2 2 2h16c1.11 0 2-.89 2-2V6c0-1.11-.89-2-2-2zM8.5 15H7.3l-2.55-3.5V15H3.5V9h1.25l2.5 3.5V9H8.5v6zm5-4.74H11v1.12h2.5v1.26H11v1.11h2.5V15h-4V9h4v1.26zm7 3.74c0 .55-.45 1-1 1h-4c-.55 0-1-.45-1-1V9h1.25v4.51h1.13V9.99h1.25v3.51h1.12V9h1.25v5z"/>
    </svg>
    <svg id="sidenav-ideas" fill="#000000" height="24" viewBox="0 0 24 24" width="24">
        <defs> <path d="M0 0h24v24H0V0z" id="a"/> </defs>
        <clipPath id="b"> <use overflow="visible" xlink:href="#a"/> </clipPath>
        <path clip-path="url(#b)" d="M6 14l3 3v5h6v-5l3-3V9H6zm5-12h2v3h-2zM3.5 5.875L4.914 4.46l2.12 2.122L5.62 7.997zm13.46.71l2.123-2.12 1.414 1.414L18.375 8z"/>
    </svg>
    <svg id="sidenav-help" fill="#000000" height="24" viewBox="0 0 24 24" width="24">
        <path d="M0 0h24v24H0z" fill="none"/>
        <path d="M12 2C6.48 2 2 6.48 2 12s4.48 10 10 10 10-4.48 10-10S17.52 2 12 2zm1 17h-2v-2h2v2zm2.07-7.75l-.9.92C13.45 12.9 13 13.5 13 15h-2v-.5c0-1.1.45-2.1 1.17-2.83l1.24-1.26c.37-.36.59-.86.59-1.41 0-1.1-.9-2-2-2s-2 .9-2 2H8c0-2.21 1.79-4 4-4s4 1.79 4 4c0 .88-.36 1.68-.93 2.25z"/>
    </svg>
    <svg id="sidenav-about" fill="#000000" height="24" viewBox="0 0 24 24" width="24">
        <path d="M0 0h24v24H0z" fill="none"/>
        <path d="M12 2C6.48 2 2 6.48 2 12s4.48 10 10 10 10-4.48 10-10S17.52 2 12 2zm1 15h-2v-6h2v6zm0-8h-2V7h2v2z"/>
    </svg>
  </g>

  <g id="texts">
    <svg id="texts-folder-closed" fill="#000000" viewBox="0 0 24 24" height="24" width="24">
      <path d="M10 4H4c-1.1 0-1.99.9-1.99 2L2 18c0 1.1.9 2 2 2h16c1.1 0 2-.9 2-2V8c0-1.1-.9-2-2-2h-8l-2-2z"/>
      <path d="M0 0h24v24H0z" fill="none"/>
    </svg>
  </g>
</svg>
